<svg xmlns="http://www.w3.org/2000/svg" width="411" height="414" viewBox="0 0 411 414" version="1.1"><path d="M 315 66.524 C 306.325 68.933, 299.378 72.755, 293.083 78.583 C 280.770 89.983, 274.524 109.576, 276.958 129.164 C 280.486 157.553, 299.221 175, 326.179 175 C 336.310 175, 342.933 173.550, 351.619 169.429 C 369.866 160.771, 380.194 139.989, 378.667 115 C 377.264 92.034, 365.326 74.451, 346.777 68.029 C 338.413 65.133, 322.692 64.388, 315 66.524 M 137 120 L 137 173 198.500 173 L 260 173 260 120 L 260 67 248.511 67 L 237.021 67 236.761 110.250 L 236.500 153.500 223.500 153.500 L 210.500 153.500 210.239 110.250 L 209.979 67 198.500 67 L 187.021 67 186.761 110.250 L 186.500 153.500 173.500 153.500 L 160.500 153.500 160.239 110.250 L 159.979 67 148.489 67 L 137 67 137 120 M 68.580 73.248 C 68.299 75.037, 67.588 79.875, 67 84 C 66.412 88.125, 65.705 92.944, 65.428 94.709 L 64.925 97.917 57.212 98.209 L 49.500 98.500 49.500 105.500 L 49.500 112.500 56.339 112.798 C 61.391 113.018, 63.049 113.429, 62.687 114.373 C 62.417 115.076, 61.876 118.642, 61.485 122.297 C 61.093 125.953, 60.166 129.447, 59.425 130.062 C 58.619 130.731, 55.447 131.030, 51.538 130.806 L 45 130.430 45 137.715 L 45 145 51.567 145 C 57.340 145, 58.076 145.212, 57.649 146.750 C 56.393 151.276, 53.811 172.144, 54.431 172.764 C 55.060 173.394, 67.101 173.232, 67.747 172.586 C 67.894 172.439, 68.697 167.185, 69.532 160.910 C 71.861 143.412, 70.914 145, 79.019 145 C 83.951 145, 85.992 145.367, 85.974 146.250 C 85.960 146.938, 85.112 153.125, 84.089 160 C 83.067 166.875, 82.294 172.578, 82.373 172.674 C 82.729 173.111, 95.929 173.395, 96.283 172.974 C 96.501 172.714, 97.540 166.425, 98.590 159 L 100.500 145.500 108.250 145.208 L 116 144.916 116 137.958 C 116 130.309, 116.573 130.858, 108.335 130.620 C 106.043 130.554, 103.906 130.238, 103.585 129.917 C 103.264 129.597, 103.521 125.660, 104.157 121.167 L 105.312 113 112.656 113 L 120 113 120 105.500 L 120 98 114 98 C 106.915 98, 107.178 98.999, 109.926 82.500 C 110.934 76.450, 111.572 71.181, 111.345 70.790 C 110.888 70.005, 99.590 70.518, 98.182 71.388 C 97.693 71.690, 96.489 77.801, 95.504 84.968 L 93.715 98 86.312 98 L 78.909 98 79.453 94.750 C 81.779 80.843, 82.960 71.626, 82.477 71.144 C 82.162 70.829, 79.022 70.442, 75.498 70.284 L 69.091 69.996 68.580 73.248 M 320.838 85.182 C 308.860 88.372, 300.997 104.921, 302.257 124.292 C 303.827 148.426, 319.951 161.853, 337.500 153.640 C 346.224 149.558, 351.401 140.521, 353.049 126.500 C 356.225 99.485, 340.908 79.837, 320.838 85.182 M 76.945 113.250 C 76.916 113.388, 76.332 117.211, 75.649 121.747 C 74.221 131.231, 74.001 130.961, 82.926 130.674 C 89.105 130.476, 89.132 130.434, 90.394 119.250 L 91.099 113 84.050 113 C 80.172 113, 76.975 113.112, 76.945 113.250 M 41.678 236.656 C 41.305 237.028, 41 241.521, 41 246.639 L 41 255.945 55.250 256.223 L 69.500 256.500 69.761 299.750 L 70.021 343 82 343 L 93.979 343 94.239 299.750 L 94.500 256.500 109 256 L 123.500 255.500 123.435 246 L 123.369 236.500 82.862 236.239 C 60.584 236.095, 42.050 236.283, 41.678 236.656 M 142.544 258.250 C 138.828 270.488, 131.561 294.242, 126.394 311.039 C 121.227 327.835, 117 341.897, 117 342.289 C 117 342.680, 122.543 343, 129.318 343 L 141.636 343 145.425 329.570 L 149.215 316.139 152.857 315.607 C 159.867 314.581, 178.830 315.084, 179.744 316.320 C 180.224 316.969, 181.348 319.975, 182.242 323 C 183.136 326.025, 184.841 331.762, 186.031 335.750 L 188.195 343 201.165 343 L 214.135 343 213.457 340.750 C 213.084 339.512, 211.282 333.775, 209.453 328 C 207.624 322.225, 201.351 301.975, 195.514 283 C 189.677 264.025, 183.987 245.688, 182.869 242.250 L 180.837 236 165.068 236 L 149.299 236 142.544 258.250 M 232.608 240.250 C 232.325 242.588, 231.834 249.225, 231.519 255 C 231.203 260.775, 229.835 282.600, 228.480 303.500 C 227.124 324.400, 226.011 341.837, 226.007 342.250 C 226.003 342.663, 230.922 343, 236.939 343 L 247.877 343 248.406 338.750 C 248.696 336.413, 249.451 321.675, 250.083 306 C 250.715 290.325, 251.547 273.450, 251.931 268.500 C 252.545 260.589, 252.719 259.984, 253.369 263.500 C 254.390 269.027, 264.084 307.272, 269.147 325.750 L 273.326 341 282.913 340.986 L 292.500 340.972 300.874 314.236 C 305.479 299.531, 310.992 281.237, 313.125 273.582 C 315.258 265.927, 317.155 259.511, 317.341 259.326 C 317.526 259.140, 317.977 271.704, 318.342 287.244 C 318.707 302.785, 319.299 321.688, 319.657 329.250 L 320.308 343 332.206 343 L 344.104 343 343.524 334.750 C 343.205 330.212, 342.066 310.525, 340.994 291 C 339.921 271.475, 338.759 251.101, 338.412 245.725 L 337.781 235.950 322.140 236.225 L 306.500 236.500 302.193 249.500 C 296.846 265.639, 287.492 298.050, 286.538 303.745 C 285.607 309.297, 284.386 309.908, 283.546 305.241 C 281.782 295.439, 271.620 257.506, 265.869 239.250 L 264.845 236 248.984 236 L 233.123 236 232.608 240.250 M 163.719 256 C 163.409 256.825, 162.617 259.975, 161.959 263 C 161.302 266.025, 159.027 274.773, 156.904 282.439 C 154.782 290.106, 153.297 296.631, 153.606 296.939 C 154.525 297.858, 174.846 298.058, 175.405 297.153 C 175.689 296.695, 173.670 288.260, 170.920 278.410 C 168.170 268.559, 165.551 259.150, 165.100 257.500 C 164.548 255.476, 164.098 254.988, 163.719 256" stroke="none" fill="#ffffff" fill-rule="evenodd"/><path d="M 41.500 1.870 C 26.833 6.092, 13.544 16.727, 6.728 29.698 C -0.469 43.393, 0 31.043, 0 207 C -0 382.957, -0.469 370.607, 6.728 384.302 C 11.465 393.316, 20.659 402.525, 29.606 407.215 C 43.438 414.467, 31.325 414, 205.500 414 C 379.675 414, 367.562 414.467, 381.394 407.215 C 391.083 402.136, 399.824 393.101, 404.941 382.878 C 407.184 378.396, 409.299 372.980, 409.641 370.842 C 409.983 368.705, 410.654 366.714, 411.131 366.419 C 411.617 366.119, 412 295.340, 412 205.882 C 412 114.694, 411.624 46.115, 411.125 46.423 C 410.644 46.720, 409.973 45.233, 409.635 43.117 C 409.296 41.002, 407.184 35.604, 404.941 31.122 C 399.824 20.899, 391.083 11.864, 381.394 6.785 C 367.551 -0.473, 379.781 -0.008, 204.856 0.071 C 58.897 0.137, 47.065 0.268, 41.500 1.870 M 0.488 207 C 0.488 295.275, 0.606 331.388, 0.750 287.250 C 0.894 243.113, 0.894 170.888, 0.750 126.750 C 0.606 82.613, 0.488 118.725, 0.488 207 M 315 66.524 C 306.325 68.933, 299.378 72.755, 293.083 78.583 C 280.770 89.983, 274.524 109.576, 276.958 129.164 C 280.486 157.553, 299.221 175, 326.179 175 C 336.310 175, 342.933 173.550, 351.619 169.429 C 369.866 160.771, 380.194 139.989, 378.667 115 C 377.264 92.034, 365.326 74.451, 346.777 68.029 C 338.413 65.133, 322.692 64.388, 315 66.524 M 137 120 L 137 173 198.500 173 L 260 173 260 120 L 260 67 248.511 67 L 237.021 67 236.761 110.250 L 236.500 153.500 223.500 153.500 L 210.500 153.500 210.239 110.250 L 209.979 67 198.500 67 L 187.021 67 186.761 110.250 L 186.500 153.500 173.500 153.500 L 160.500 153.500 160.239 110.250 L 159.979 67 148.489 67 L 137 67 137 120 M 68.580 73.248 C 68.299 75.037, 67.588 79.875, 67 84 C 66.412 88.125, 65.705 92.944, 65.428 94.709 L 64.925 97.917 57.212 98.209 L 49.500 98.500 49.500 105.500 L 49.500 112.500 56.339 112.798 C 61.391 113.018, 63.049 113.429, 62.687 114.373 C 62.417 115.076, 61.876 118.642, 61.485 122.297 C 61.093 125.953, 60.166 129.447, 59.425 130.062 C 58.619 130.731, 55.447 131.030, 51.538 130.806 L 45 130.430 45 137.715 L 45 145 51.567 145 C 57.340 145, 58.076 145.212, 57.649 146.750 C 56.393 151.276, 53.811 172.144, 54.431 172.764 C 55.060 173.394, 67.101 173.232, 67.747 172.586 C 67.894 172.439, 68.697 167.185, 69.532 160.910 C 71.861 143.412, 70.914 145, 79.019 145 C 83.951 145, 85.992 145.367, 85.974 146.250 C 85.960 146.938, 85.112 153.125, 84.089 160 C 83.067 166.875, 82.294 172.578, 82.373 172.674 C 82.729 173.111, 95.929 173.395, 96.283 172.974 C 96.501 172.714, 97.540 166.425, 98.590 159 L 100.500 145.500 108.250 145.208 L 116 144.916 116 137.958 C 116 130.309, 116.573 130.858, 108.335 130.620 C 106.043 130.554, 103.906 130.238, 103.585 129.917 C 103.264 129.597, 103.521 125.660, 104.157 121.167 L 105.312 113 112.656 113 L 120 113 120 105.500 L 120 98 114 98 C 106.915 98, 107.178 98.999, 109.926 82.500 C 110.934 76.450, 111.572 71.181, 111.345 70.790 C 110.888 70.005, 99.590 70.518, 98.182 71.388 C 97.693 71.690, 96.489 77.801, 95.504 84.968 L 93.715 98 86.312 98 L 78.909 98 79.453 94.750 C 81.779 80.843, 82.960 71.626, 82.477 71.144 C 82.162 70.829, 79.022 70.442, 75.498 70.284 L 69.091 69.996 68.580 73.248 M 320.838 85.182 C 308.860 88.372, 300.997 104.921, 302.257 124.292 C 303.827 148.426, 319.951 161.853, 337.500 153.640 C 346.224 149.558, 351.401 140.521, 353.049 126.500 C 356.225 99.485, 340.908 79.837, 320.838 85.182 M 76.945 113.250 C 76.916 113.388, 76.332 117.211, 75.649 121.747 C 74.221 131.231, 74.001 130.961, 82.926 130.674 C 89.105 130.476, 89.132 130.434, 90.394 119.250 L 91.099 113 84.050 113 C 80.172 113, 76.975 113.112, 76.945 113.250 M 41.678 236.656 C 41.305 237.028, 41 241.521, 41 246.639 L 41 255.945 55.250 256.223 L 69.500 256.500 69.761 299.750 L 70.021 343 82 343 L 93.979 343 94.239 299.750 L 94.500 256.500 109 256 L 123.500 255.500 123.435 246 L 123.369 236.500 82.862 236.239 C 60.584 236.095, 42.050 236.283, 41.678 236.656 M 142.544 258.250 C 138.828 270.488, 131.561 294.242, 126.394 311.039 C 121.227 327.835, 117 341.897, 117 342.289 C 117 342.680, 122.543 343, 129.318 343 L 141.636 343 145.425 329.570 L 149.215 316.139 152.857 315.607 C 159.867 314.581, 178.830 315.084, 179.744 316.320 C 180.224 316.969, 181.348 319.975, 182.242 323 C 183.136 326.025, 184.841 331.762, 186.031 335.750 L 188.195 343 201.165 343 L 214.135 343 213.457 340.750 C 213.084 339.512, 211.282 333.775, 209.453 328 C 207.624 322.225, 201.351 301.975, 195.514 283 C 189.677 264.025, 183.987 245.688, 182.869 242.250 L 180.837 236 165.068 236 L 149.299 236 142.544 258.250 M 232.608 240.250 C 232.325 242.588, 231.834 249.225, 231.519 255 C 231.203 260.775, 229.835 282.600, 228.480 303.500 C 227.124 324.400, 226.011 341.837, 226.007 342.250 C 226.003 342.663, 230.922 343, 236.939 343 L 247.877 343 248.406 338.750 C 248.696 336.413, 249.451 321.675, 250.083 306 C 250.715 290.325, 251.547 273.450, 251.931 268.500 C 252.545 260.589, 252.719 259.984, 253.369 263.500 C 254.390 269.027, 264.084 307.272, 269.147 325.750 L 273.326 341 282.913 340.986 L 292.500 340.972 300.874 314.236 C 305.479 299.531, 310.992 281.237, 313.125 273.582 C 315.258 265.927, 317.155 259.511, 317.341 259.326 C 317.526 259.140, 317.977 271.704, 318.342 287.244 C 318.707 302.785, 319.299 321.688, 319.657 329.250 L 320.308 343 332.206 343 L 344.104 343 343.524 334.750 C 343.205 330.212, 342.066 310.525, 340.994 291 C 339.921 271.475, 338.759 251.101, 338.412 245.725 L 337.781 235.950 322.140 236.225 L 306.500 236.500 302.193 249.500 C 296.846 265.639, 287.492 298.050, 286.538 303.745 C 285.607 309.297, 284.386 309.908, 283.546 305.241 C 281.782 295.439, 271.620 257.506, 265.869 239.250 L 264.845 236 248.984 236 L 233.123 236 232.608 240.250 M 163.719 256 C 163.409 256.825, 162.617 259.975, 161.959 263 C 161.302 266.025, 159.027 274.773, 156.904 282.439 C 154.782 290.106, 153.297 296.631, 153.606 296.939 C 154.525 297.858, 174.846 298.058, 175.405 297.153 C 175.689 296.695, 173.670 288.260, 170.920 278.410 C 168.170 268.559, 165.551 259.150, 165.100 257.500 C 164.548 255.476, 164.098 254.988, 163.719 256" stroke="none" fill="#000000" fill-rule="evenodd"/></svg>